<mxfile host="app.diagrams.net" modified="2024-06-01T06:36:31.916Z" agent="Mozilla/5.0 (Windows NT 10.0; Win64; x64) AppleWebKit/537.36 (KHTML, like Gecko) Chrome/125.0.0.0 Safari/537.36 Edg/125.0.0.0" etag="fPNBwLpovizmcPM65Y7W" version="24.4.13" type="device">
  <diagram name="第 1 页" id="_ySgYksEDE-FE1QrUlG2">
    <mxGraphModel dx="701" dy="805" grid="1" gridSize="10" guides="1" tooltips="1" connect="1" arrows="1" fold="1" page="1" pageScale="1" pageWidth="827" pageHeight="1169" math="1" shadow="0">
      <root>
        <mxCell id="0" />
        <mxCell id="1" parent="0" />
        <mxCell id="aQbyuSMh0ohU45B-UWGB-4" style="edgeStyle=orthogonalEdgeStyle;rounded=0;orthogonalLoop=1;jettySize=auto;html=1;exitX=0.5;exitY=1;exitDx=0;exitDy=0;entryX=0.5;entryY=0;entryDx=0;entryDy=0;" edge="1" parent="1" source="aQbyuSMh0ohU45B-UWGB-1" target="aQbyuSMh0ohU45B-UWGB-2">
          <mxGeometry relative="1" as="geometry" />
        </mxCell>
        <mxCell id="aQbyuSMh0ohU45B-UWGB-1" value="Conv1d" style="rounded=1;whiteSpace=wrap;html=1;fillColor=#dae8fc;strokeColor=#6c8ebf;" vertex="1" parent="1">
          <mxGeometry x="120" y="201" width="120" height="40" as="geometry" />
        </mxCell>
        <mxCell id="aQbyuSMh0ohU45B-UWGB-5" style="edgeStyle=orthogonalEdgeStyle;rounded=0;orthogonalLoop=1;jettySize=auto;html=1;exitX=0.5;exitY=1;exitDx=0;exitDy=0;entryX=0.5;entryY=0;entryDx=0;entryDy=0;" edge="1" parent="1" source="aQbyuSMh0ohU45B-UWGB-2" target="aQbyuSMh0ohU45B-UWGB-3">
          <mxGeometry relative="1" as="geometry" />
        </mxCell>
        <mxCell id="aQbyuSMh0ohU45B-UWGB-2" value="ELU" style="rounded=1;whiteSpace=wrap;html=1;fillColor=#e1d5e7;strokeColor=#9673a6;" vertex="1" parent="1">
          <mxGeometry x="120" y="270" width="120" height="40" as="geometry" />
        </mxCell>
        <mxCell id="aQbyuSMh0ohU45B-UWGB-8" style="edgeStyle=orthogonalEdgeStyle;rounded=0;orthogonalLoop=1;jettySize=auto;html=1;exitX=0.5;exitY=1;exitDx=0;exitDy=0;entryX=0.5;entryY=0;entryDx=0;entryDy=0;" edge="1" parent="1" source="aQbyuSMh0ohU45B-UWGB-3" target="aQbyuSMh0ohU45B-UWGB-6">
          <mxGeometry relative="1" as="geometry" />
        </mxCell>
        <mxCell id="aQbyuSMh0ohU45B-UWGB-3" value="ConvBlock" style="rounded=1;whiteSpace=wrap;html=1;fillColor=#dae8fc;strokeColor=#6c8ebf;" vertex="1" parent="1">
          <mxGeometry x="120" y="363" width="120" height="40" as="geometry" />
        </mxCell>
        <mxCell id="aQbyuSMh0ohU45B-UWGB-9" style="edgeStyle=orthogonalEdgeStyle;rounded=0;orthogonalLoop=1;jettySize=auto;html=1;exitX=0.5;exitY=1;exitDx=0;exitDy=0;" edge="1" parent="1" source="aQbyuSMh0ohU45B-UWGB-6" target="aQbyuSMh0ohU45B-UWGB-7">
          <mxGeometry relative="1" as="geometry" />
        </mxCell>
        <mxCell id="aQbyuSMh0ohU45B-UWGB-6" value="Multihead&amp;nbsp;&lt;span style=&quot;background-color: initial;&quot;&gt;Attention&lt;/span&gt;" style="rounded=1;whiteSpace=wrap;html=1;fillColor=#f8cecc;strokeColor=#b85450;" vertex="1" parent="1">
          <mxGeometry x="120" y="443" width="120" height="40" as="geometry" />
        </mxCell>
        <mxCell id="aQbyuSMh0ohU45B-UWGB-12" style="edgeStyle=orthogonalEdgeStyle;rounded=0;orthogonalLoop=1;jettySize=auto;html=1;exitX=0.5;exitY=1;exitDx=0;exitDy=0;entryX=0.5;entryY=0;entryDx=0;entryDy=0;" edge="1" parent="1" source="aQbyuSMh0ohU45B-UWGB-7" target="aQbyuSMh0ohU45B-UWGB-10">
          <mxGeometry relative="1" as="geometry" />
        </mxCell>
        <mxCell id="aQbyuSMh0ohU45B-UWGB-7" value="LayerNorm" style="rounded=1;whiteSpace=wrap;html=1;fillColor=#fff2cc;strokeColor=#d6b656;" vertex="1" parent="1">
          <mxGeometry x="120" y="505" width="120" height="40" as="geometry" />
        </mxCell>
        <mxCell id="aQbyuSMh0ohU45B-UWGB-13" style="edgeStyle=orthogonalEdgeStyle;rounded=0;orthogonalLoop=1;jettySize=auto;html=1;exitX=0.5;exitY=1;exitDx=0;exitDy=0;entryX=0.5;entryY=0;entryDx=0;entryDy=0;" edge="1" parent="1" source="aQbyuSMh0ohU45B-UWGB-10" target="aQbyuSMh0ohU45B-UWGB-11">
          <mxGeometry relative="1" as="geometry" />
        </mxCell>
        <mxCell id="aQbyuSMh0ohU45B-UWGB-10" value="AvgPool" style="rounded=1;whiteSpace=wrap;html=1;fillColor=#ffe6cc;strokeColor=#d79b00;" vertex="1" parent="1">
          <mxGeometry x="120" y="570" width="120" height="40" as="geometry" />
        </mxCell>
        <mxCell id="aQbyuSMh0ohU45B-UWGB-11" value="Linear" style="rounded=1;whiteSpace=wrap;html=1;fillColor=#f5f5f5;fontColor=#333333;strokeColor=#666666;" vertex="1" parent="1">
          <mxGeometry x="120" y="630" width="120" height="40" as="geometry" />
        </mxCell>
        <mxCell id="aQbyuSMh0ohU45B-UWGB-15" value="" style="rounded=0;whiteSpace=wrap;html=1;dashed=1;fillColor=none;" vertex="1" parent="1">
          <mxGeometry x="100" y="333" width="160" height="90" as="geometry" />
        </mxCell>
        <mxCell id="aQbyuSMh0ohU45B-UWGB-16" value="`\times 4`" style="text;html=1;align=center;verticalAlign=middle;whiteSpace=wrap;rounded=0;" vertex="1" parent="1">
          <mxGeometry x="210" y="333" width="60" height="30" as="geometry" />
        </mxCell>
        <mxCell id="aQbyuSMh0ohU45B-UWGB-22" style="edgeStyle=orthogonalEdgeStyle;rounded=0;orthogonalLoop=1;jettySize=auto;html=1;exitX=0.5;exitY=1;exitDx=0;exitDy=0;entryX=0.5;entryY=0;entryDx=0;entryDy=0;" edge="1" parent="1" source="aQbyuSMh0ohU45B-UWGB-18" target="aQbyuSMh0ohU45B-UWGB-19">
          <mxGeometry relative="1" as="geometry" />
        </mxCell>
        <mxCell id="aQbyuSMh0ohU45B-UWGB-18" value="Conv1d" style="rounded=1;whiteSpace=wrap;html=1;fillColor=#dae8fc;strokeColor=#6c8ebf;" vertex="1" parent="1">
          <mxGeometry x="360" y="280" width="120" height="40" as="geometry" />
        </mxCell>
        <mxCell id="aQbyuSMh0ohU45B-UWGB-23" style="edgeStyle=orthogonalEdgeStyle;rounded=0;orthogonalLoop=1;jettySize=auto;html=1;exitX=0.5;exitY=1;exitDx=0;exitDy=0;entryX=0.5;entryY=0;entryDx=0;entryDy=0;" edge="1" parent="1" source="aQbyuSMh0ohU45B-UWGB-19" target="aQbyuSMh0ohU45B-UWGB-20">
          <mxGeometry relative="1" as="geometry" />
        </mxCell>
        <mxCell id="aQbyuSMh0ohU45B-UWGB-19" value="Conv1d" style="rounded=1;whiteSpace=wrap;html=1;fillColor=#dae8fc;strokeColor=#6c8ebf;" vertex="1" parent="1">
          <mxGeometry x="360" y="340" width="120" height="40" as="geometry" />
        </mxCell>
        <mxCell id="aQbyuSMh0ohU45B-UWGB-27" style="edgeStyle=orthogonalEdgeStyle;rounded=0;orthogonalLoop=1;jettySize=auto;html=1;exitX=0.5;exitY=1;exitDx=0;exitDy=0;entryX=0.5;entryY=0;entryDx=0;entryDy=0;" edge="1" parent="1" source="aQbyuSMh0ohU45B-UWGB-20" target="aQbyuSMh0ohU45B-UWGB-25">
          <mxGeometry relative="1" as="geometry" />
        </mxCell>
        <mxCell id="aQbyuSMh0ohU45B-UWGB-20" value="Conv1d" style="rounded=1;whiteSpace=wrap;html=1;fillColor=#dae8fc;strokeColor=#6c8ebf;" vertex="1" parent="1">
          <mxGeometry x="360" y="400" width="120" height="40" as="geometry" />
        </mxCell>
        <mxCell id="aQbyuSMh0ohU45B-UWGB-33" style="edgeStyle=orthogonalEdgeStyle;rounded=0;orthogonalLoop=1;jettySize=auto;html=1;exitX=0.5;exitY=1;exitDx=0;exitDy=0;entryX=0.5;entryY=0;entryDx=0;entryDy=0;" edge="1" parent="1" source="aQbyuSMh0ohU45B-UWGB-21" target="aQbyuSMh0ohU45B-UWGB-26">
          <mxGeometry relative="1" as="geometry" />
        </mxCell>
        <mxCell id="aQbyuSMh0ohU45B-UWGB-21" value="BatchNorm" style="rounded=1;whiteSpace=wrap;html=1;fillColor=#fff2cc;strokeColor=#d6b656;" vertex="1" parent="1">
          <mxGeometry x="360" y="557" width="120" height="40" as="geometry" />
        </mxCell>
        <mxCell id="aQbyuSMh0ohU45B-UWGB-24" value="" style="endArrow=classic;html=1;rounded=0;entryX=0.5;entryY=0;entryDx=0;entryDy=0;" edge="1" parent="1" target="aQbyuSMh0ohU45B-UWGB-18">
          <mxGeometry width="50" height="50" relative="1" as="geometry">
            <mxPoint x="420" y="220" as="sourcePoint" />
            <mxPoint x="390" y="490" as="targetPoint" />
          </mxGeometry>
        </mxCell>
        <mxCell id="aQbyuSMh0ohU45B-UWGB-31" style="edgeStyle=orthogonalEdgeStyle;rounded=0;orthogonalLoop=1;jettySize=auto;html=1;exitX=0.5;exitY=1;exitDx=0;exitDy=0;entryX=0.5;entryY=0;entryDx=0;entryDy=0;" edge="1" parent="1" source="aQbyuSMh0ohU45B-UWGB-25" target="aQbyuSMh0ohU45B-UWGB-21">
          <mxGeometry relative="1" as="geometry" />
        </mxCell>
        <mxCell id="aQbyuSMh0ohU45B-UWGB-25" value="MaxPool" style="rounded=1;whiteSpace=wrap;html=1;fillColor=#ffe6cc;strokeColor=#d79b00;" vertex="1" parent="1">
          <mxGeometry x="360" y="489" width="120" height="40" as="geometry" />
        </mxCell>
        <mxCell id="aQbyuSMh0ohU45B-UWGB-26" value="ReLu" style="rounded=1;whiteSpace=wrap;html=1;fillColor=#e1d5e7;strokeColor=#9673a6;" vertex="1" parent="1">
          <mxGeometry x="360" y="620" width="120" height="40" as="geometry" />
        </mxCell>
        <mxCell id="aQbyuSMh0ohU45B-UWGB-28" value="" style="endArrow=classic;html=1;rounded=0;" edge="1" parent="1">
          <mxGeometry width="50" height="50" relative="1" as="geometry">
            <mxPoint x="420" y="250" as="sourcePoint" />
            <mxPoint x="420" y="470" as="targetPoint" />
            <Array as="points">
              <mxPoint x="530" y="250" />
              <mxPoint x="530" y="470" />
            </Array>
          </mxGeometry>
        </mxCell>
        <mxCell id="aQbyuSMh0ohU45B-UWGB-30" value="&lt;font style=&quot;font-size: 15px;&quot;&gt;+&lt;/font&gt;" style="text;html=1;align=center;verticalAlign=middle;whiteSpace=wrap;rounded=0;" vertex="1" parent="1">
          <mxGeometry x="405" y="444" width="60" height="30" as="geometry" />
        </mxCell>
        <mxCell id="aQbyuSMh0ohU45B-UWGB-32" value="" style="rounded=0;whiteSpace=wrap;html=1;fillColor=none;dashed=1;" vertex="1" parent="1">
          <mxGeometry x="330" y="206" width="230" height="470" as="geometry" />
        </mxCell>
        <mxCell id="aQbyuSMh0ohU45B-UWGB-34" value="" style="endArrow=classic;html=1;rounded=0;exitX=0.5;exitY=1;exitDx=0;exitDy=0;" edge="1" parent="1" source="aQbyuSMh0ohU45B-UWGB-26">
          <mxGeometry width="50" height="50" relative="1" as="geometry">
            <mxPoint x="340" y="540" as="sourcePoint" />
            <mxPoint x="420" y="690" as="targetPoint" />
          </mxGeometry>
        </mxCell>
        <mxCell id="aQbyuSMh0ohU45B-UWGB-36" value="ConvBlock" style="text;html=1;align=center;verticalAlign=middle;whiteSpace=wrap;rounded=0;" vertex="1" parent="1">
          <mxGeometry x="481" y="206" width="60" height="30" as="geometry" />
        </mxCell>
      </root>
    </mxGraphModel>
  </diagram>
</mxfile>
